<svg width="30" height="30" viewBox="0 0 30 30" fill="none" xmlns="http://www.w3.org/2000/svg">
<path d="M15 0C6.7125 0 0 6.7125 0 15C0 23.2875 6.7125 30 15 30C23.2875 30 30 23.2875 30 15C30 6.7125 23.2875 0 15 0ZM15 3.75C16.2375 3.75 17.4 4.0875 18.525 4.4625C17.7375 5.2125 16.8375 5.8875 16.9875 6.5625C17.1375 7.2375 19.575 7.05 19.575 8.4375C19.575 9.45 18 9.75 19.0875 10.9125C20.4 12.225 16.6875 14.5875 16.6125 16.3125C16.5 19.425 19.7625 19.95 22.35 19.95C23.925 19.95 24.3375 20.7 24.225 21.6C22.2 24.4875 18.75 26.2875 14.9625 26.2875C13.5375 26.2875 12.225 25.95 10.9875 25.4625C11.8125 23.8125 9.9375 20.55 8.175 19.5C7.3125 18.6375 5.475 18.975 4.425 18.5625C4.0875 17.55 3.75 16.5375 3.7125 15.4125C3.825 15.225 4.0125 15.075 4.3125 15.075C5.025 15.075 6 16.5 6.525 16.35C7.2 16.2 3.75 11.4375 5.3625 10.5C6.1125 10.05 7.6125 11.9625 7.125 9.9C6.675 7.9875 8.475 8.85 9.6 8.3625C10.575 7.95 11.2875 6.825 10.0875 6.15C9.8625 6.0375 9.6 5.775 9.2625 5.4375C10.95 4.425 12.9 3.7875 15 3.7875V3.75ZM23.6625 7.8375C24.3375 8.6625 24.8625 9.5625 25.3125 10.5375V10.65C25.1625 10.9125 24.9 11.0625 24.4875 11.475C23.4375 12.525 23.2875 10.6875 22.8375 10.3125C22.35 9.8625 20.5875 10.3875 20.3625 9.825C20.1 9.15 22.2375 8.25 23.6625 7.8375Z" fill="black"/>
</svg>
